<?xml version="1.0" encoding="utf-8"?>
<!-- Generator: Adobe Illustrator 15.0.2, SVG Export Plug-In . SVG Version: 6.00 Build 0)  -->
<!DOCTYPE svg PUBLIC "-//W3C//DTD SVG 1.1//EN" "http://www.w3.org/Graphics/SVG/1.1/DTD/svg11.dtd">
<svg version="1.1" xmlns="http://www.w3.org/2000/svg" xmlns:xlink="http://www.w3.org/1999/xlink" x="0px" y="0px"
	 width="100.08px" height="100.08px" viewBox="0 0 100.08 100.08" enable-background="new 0 0 100.08 100.08" xml:space="preserve">
<g id="Layer_2">
	<path fill="#231F20" d="M49.439,27.171c0,0-0.489-11.612,7.342-10.046c0,0,2.438,0.406,2.781,2.984c0,0,0.562,4.719-3.516,5
		C56.047,25.109,51.25,25,49.439,27.171z"/>
</g>
<g id="Layer_3">
	<path fill="#231F20" d="M47.234,27.171c0,0,0.656-6.171-3.484-7.937c0,0-1.234-0.465-2.359-0.231c0,0-1.571,0.066-2.145,1.964
		c0,0-0.996,3.033,2.214,4.167C41.46,25.134,45.797,25.359,47.234,27.171z"/>
</g>
<g id="Layer_4">
	<path fill="#231F20" d="M34.25,29.281h30.312c0,0,3,0.625,3.312,3.031v2.031c0,0-0.25,2.688-3.156,3.094H34.25
		c0,0-2.719,0.031-3.406-2.969v-2.031C30.844,32.438,31.25,29.906,34.25,29.281z"/>
</g>
<g id="Layer_5">
	<polygon fill="#231F20" points="34.875,83.218 26.562,83.218 39.5,37.062 47.75,37.062 	"/>
</g>
<g id="Layer_6">
	<polygon fill="#231F20" points="63.812,83.218 72.25,83.218 59.25,37.062 50.875,37.062 	"/>
</g>
<g id="Layer_7">
	<polygon fill="#231F20" points="45.062,45.812 53.75,45.812 55,50.04 43.75,50.04 	"/>
	<polygon fill="#231F20" points="40.938,60.375 58,60.375 59,64.5 39.812,64.5 	"/>
	<polygon fill="#231F20" points="61.938,74.875 63.062,78.938 35.625,78.938 36.812,74.875 	"/>
</g>
</svg>
