<?xml version="1.0" encoding="utf-8"?>
<!-- Generator: Adobe Illustrator 15.0.2, SVG Export Plug-In . SVG Version: 6.00 Build 0)  -->
<!DOCTYPE svg PUBLIC "-//W3C//DTD SVG 1.1//EN" "http://www.w3.org/Graphics/SVG/1.1/DTD/svg11.dtd">
<svg version="1.1" id="Layer_1" xmlns="http://www.w3.org/2000/svg" xmlns:xlink="http://www.w3.org/1999/xlink" x="0px" y="0px"
	 width="100px" height="100px" viewBox="0 0 100 100" enable-background="new 0 0 100 100" xml:space="preserve">
<g>
	<path fill="#FFFFFF" d="M50,12.5c-20.712,0-37.5,16.793-37.5,37.502C12.5,70.712,29.288,87.5,50,87.5s37.5-16.788,37.5-37.498
		C87.5,29.293,70.712,12.5,50,12.5z M50,77.561c-15.199,0-27.561-12.361-27.561-27.559c0-6.702,2.407-12.853,6.4-17.636
		l38.795,38.795C62.852,75.152,56.703,77.561,50,77.561z M71.161,67.635L32.366,28.839c4.782-3.992,10.931-6.4,17.634-6.4
		c15.198,0,27.561,12.367,27.561,27.562C77.561,56.704,75.152,62.854,71.161,67.635z"/>
</g>
</svg>
